# xmcd CD database file
#
# Track frame offsets:
#	150
#	13097
#	26091
#	39421
#	53844
#	64009
#	79073
#	91219
#	104453
#	118418
#	132720
#	147234
#	161423
#	174223
#	186103
#	197416
#	210449
#	222581
#
# Disc length: 3142 seconds
#
# Revision: 0
# Processed by: cddbd v1.5.2PL0 Copyright (c) Steve Scherf et al.
# Submitted via: CDex 1.79
#
DISCID=000c4412
DTITLE=Count Basie - Jazz Giants CD3
DYEAR=2004
DGENRE=Jazz
TTITLE0=My Buddy
TTITLE1=Down For Double
TTITLE2=Me And The Blues
TTITLE3=Moonlight Serenade
TTITLE4=I Never Knew
TTITLE5=Rambo
TTITLE6=House Rent Boogie
TTITLE7=The Mad Boogie
TTITLE8=Lazy Lady Blues
TTITLE9=Stay Cool
TTITLE10=I Left My Baby
TTITLE11=The King
TTITLE12=High Tide
TTITLE13=Bill's Mill
TTITLE14=Lopin'
TTITLE15=Brand New Wagon
TTITLE16=You And Your Love
TTITLE17=Sub-Deb Blues
EXTD=YEAR: 2004
EXTT0=
EXTT1=
EXTT2=
EXTT3=
EXTT4=
EXTT5=
EXTT6=
EXTT7=
EXTT8=
EXTT9=
EXTT10=
EXTT11=
EXTT12=
EXTT13=
EXTT14=
EXTT15=
EXTT16=
EXTT17=
PLAYORDER=
